<?xml version="1.0" encoding="UTF-8"?>
<svg width="117px" height="51px" viewBox="0 0 117 51" version="1.1" xmlns="http://www.w3.org/2000/svg" xmlns:xlink="http://www.w3.org/1999/xlink">
    <!-- Generator: Sketch 54.1 (76490) - https://sketchapp.com -->
    <title>logotype</title>
    <desc>Created with Sketch.</desc>
    <g id="🦄-Design" stroke="none" stroke-width="1" fill="none" fill-rule="evenodd">
        <g id="01-01-Desktop-04" transform="translate(-1188.000000, -37.000000)">
            <g id="Hero" transform="translate(0.000000, -1.000000)">
                <g id="header" transform="translate(0.433303, 0.925864)">
                    <g id="logotype" transform="translate(1187.566697, 37.074136)">
                        <path d="M113.740529,9.43548387 C111.940169,9.43548387 110.481058,10.9606772 110.481058,12.8425753 L110.481058,21.4922687 L107.418227,21.4922687 L105.611745,21.4922687 L100.192301,21.4922687 L100.192301,12.8425753 C100.192301,10.9606772 98.7331906,9.43548387 96.9328302,9.43548387 C95.133235,9.43548387 93.6733593,10.9606772 93.6733593,12.8425753 L93.6733593,21.4922687 L87.2324612,21.4922687 L85.4665319,21.4922687 L82.9913234,21.4922687 L82.9913234,12.8425753 C82.9913234,10.9606772 81.5322128,9.43548387 79.7318525,9.43548387 C77.9314922,9.43548387 76.4723816,10.9606772 76.4723816,12.8425753 L76.4723816,21.4922687 L52.323987,21.4922687 C50.5236267,21.4922687 49.0645161,23.017462 49.0645161,24.8993602 C49.0645161,26.7804585 50.5236267,28.3064516 52.323987,28.3064516 L85.4665319,28.3064516 L87.2324612,28.3064516 L105.611745,28.3064516 L107.418227,28.3064516 L111.737408,28.3064516 C114.644152,28.3064516 117,25.8439083 117,22.8055185 L117,12.8425753 C117,10.9606772 115.540889,9.43548387 113.740529,9.43548387" id="Fill-1" fill="#FF6E26"></path>
                        <path d="M114.169355,32.0806452 L114.169355,32.0806452 C112.606131,32.0806452 111.33871,33.3480665 111.33871,34.9112903 C111.33871,36.4745141 112.606131,37.7419355 114.169355,37.7419355 L114.169355,37.7419355 C115.732579,37.7419355 117,36.4745141 117,34.9112903 C117,33.3480665 115.732579,32.0806452 114.169355,32.0806452" id="Fill-3" fill="#FF6E26"></path>
                        <path d="M97.0660587,32.0806452 L89.7565219,32.0806452 C88.1273456,32.0806452 86.8064516,33.3480665 86.8064516,34.9112903 C86.8064516,36.4745141 88.1273456,37.7419355 89.7565219,37.7419355 L97.0660587,37.7419355 C98.695235,37.7419355 100.016129,36.4745141 100.016129,34.9112903 C100.016129,33.3480665 98.695235,32.0806452 97.0660587,32.0806452" id="Fill-5" fill="#FF6E26"></path>
                        <path d="M63.3371671,5.66129032 L70.6467039,5.66129032 C72.2758802,5.66129032 73.5967742,4.39386895 73.5967742,2.83064516 C73.5967742,1.26742137 72.2758802,0 70.6467039,0 L63.3371671,0 C61.7079908,0 60.3870968,1.26742137 60.3870968,2.83064516 C60.3870968,4.39386895 61.7079908,5.66129032 63.3371671,5.66129032" id="Fill-7" fill="#FF6E26"></path>
                        <path d="M34.4296044,27.169691 L34.4296044,27.1711754 L41.8024117,27.1711754 C43.7286406,27.1711754 45.2903226,25.6697608 45.2903226,23.8187831 L45.2903226,12.5971379 C45.2903226,10.8515486 43.8174603,9.43548387 42.000132,9.43548387 C40.1835761,9.43548387 38.7099415,10.8515486 38.7099415,12.5971379 L38.7099415,20.8478674 L34.4296044,20.8478674 L34.4296044,20.846383 L34.1476984,20.846383 L31.9696849,20.846383 L31.9673679,20.846383 L31.9673679,20.8426722 L30.4072306,20.8426722 C30.3562558,20.8426722 30.307598,20.8456408 30.2566232,20.846383 L30.1392268,20.846383 L30.0813009,20.8508361 C29.2348105,20.8641952 28.4261651,20.9272798 27.6522752,21.04009 L27.5673173,21.0467695 L27.5673173,21.0519647 C27.137121,21.1172759 26.7138758,21.1914931 26.3060775,21.2879755 C26.2056727,21.302819 26.1052678,21.3325059 26.0048629,21.354771 C25.6959248,21.43641 25.3947102,21.5254707 25.101219,21.6293748 C24.1280641,21.9559306 23.2707609,22.4086557 22.5138626,22.9727067 C21.2472165,23.9375307 20.3281257,25.1250063 19.7643137,26.5351337 C19.2005017,27.9304176 18.914734,29.5631967 18.9070105,31.4186275 L13.6396162,31.4186275 C12.473375,31.4186275 11.4075386,31.3221451 10.4498306,31.136602 C9.48439907,30.9436372 8.68116006,30.5948162 8.04783699,30.090139 C7.52264226,29.6522574 7.14419311,29.073363 6.920213,28.3311907 C6.69623289,27.5964401 6.58038111,26.6835682 6.58038111,25.5925749 L6.58038111,18.489986 C6.58038111,17.6142226 6.20965542,16.8200983 5.61494961,16.2560473 C5.02024381,15.6771529 4.19383444,15.328332 3.29019056,15.328332 C1.47517933,15.328332 0,16.7384593 0,18.489986 L0,26.2382648 C0,27.841357 0.208533204,29.3776536 0.617876161,30.8471548 C1.02721912,32.3240777 1.76094706,33.5263968 2.81905998,34.4689556 C3.45238305,35.04785 4.12432337,35.5525272 4.83488096,35.9681437 C5.55316199,36.3911819 6.33323065,36.7325812 7.17508692,36.9997632 C8.02466664,37.2669452 8.94375743,37.45991 9.93235928,37.5712359 C10.9209611,37.6825617 12.0254148,37.7419355 13.2379967,37.7419355 L22.8382476,37.7419355 C24.3057035,37.7419355 25.4873916,36.6064119 25.4873916,35.1962845 L25.4873916,31.1291803 C25.4873916,30.5131773 25.6109669,29.9194394 25.8426704,29.3331233 C26.0820974,28.7542289 26.3910355,28.3089255 26.7772081,28.0046349 C27.1633807,27.7003442 27.6036175,27.4851143 28.1056419,27.358945 C28.4223034,27.277306 28.7621353,27.2179322 29.132861,27.1956671 C29.3367601,27.1748862 29.5499274,27.1682067 29.7739075,27.1674645 C29.7878097,27.1674645 29.8009396,27.169691 29.8148418,27.169691 L34.4296044,27.169691 Z" id="Fill-9" fill="#007AFF"></path>
                        <polygon id="Fill-11" fill="#007AFF" points="35.8548387 49.7781961 36.172043 50.9516129 45.2903226 48.3508362 44.9738863 47.1774194"></polygon>
                        <path d="M42.3402523,32.0806452 L35.0307155,32.0806452 C33.4015392,32.0806452 32.0806452,33.3480665 32.0806452,34.9112903 C32.0806452,36.4745141 33.4015392,37.7419355 35.0307155,37.7419355 L42.3402523,37.7419355 C43.9694286,37.7419355 45.2903226,36.4745141 45.2903226,34.9112903 C45.2903226,33.3480665 43.9694286,32.0806452 42.3402523,32.0806452" id="Fill-13" fill="#007AFF"></path>
                        <path d="M41.516129,42.4596774 C41.516129,40.8964536 40.2487077,39.6290323 38.6854839,39.6290323 C37.1222601,39.6290323 35.8548387,40.8964536 35.8548387,42.4596774 C35.8548387,44.0229012 37.1222601,45.2903226 38.6854839,45.2903226 C40.2487077,45.2903226 41.516129,44.0229012 41.516129,42.4596774" id="Fill-15" fill="#007AFF"></path>
                    </g>
                </g>
            </g>
        </g>
    </g>
</svg>